<mxfile host="app.diagrams.net" modified="2024-03-27T12:30:10.872Z" agent="Mozilla/5.0 (X11; Linux x86_64; rv:109.0) Gecko/20100101 Firefox/115.0" etag="Pgk-r0R58QHAjLeyVLSW" version="24.2.0" type="device">
  <diagram name="PÃ¡gina-1" id="X5qCPmhVB2C1GbdWIgi1">
    <mxGraphModel dx="1434" dy="728" grid="1" gridSize="10" guides="1" tooltips="1" connect="1" arrows="1" fold="1" page="1" pageScale="1" pageWidth="1169" pageHeight="827" math="0" shadow="0">
      <root>
        <mxCell id="0" />
        <mxCell id="1" parent="0" />
        <mxCell id="mOL0XOq7cATIMhWe4-mW-1" value="&lt;b&gt;&lt;font style=&quot;font-size: 14px;&quot;&gt;Espacio de Nombres Padre&lt;/font&gt;&lt;/b&gt;" style="rounded=0;whiteSpace=wrap;html=1;fillColor=#fff2cc;strokeColor=#d6b656;verticalAlign=top;" vertex="1" parent="1">
          <mxGeometry x="200" y="150" width="360" height="310" as="geometry" />
        </mxCell>
        <mxCell id="mOL0XOq7cATIMhWe4-mW-2" value="&lt;b&gt;Espacio de Nombres de Ususario&lt;/b&gt;" style="rounded=0;whiteSpace=wrap;html=1;fillColor=#cdeb8b;strokeColor=#36393d;verticalAlign=top;" vertex="1" parent="1">
          <mxGeometry x="410" y="190" width="120" height="220" as="geometry" />
        </mxCell>
        <mxCell id="mOL0XOq7cATIMhWe4-mW-3" value="root (UID = 0)" style="sketch=0;outlineConnect=0;fontColor=#232F3E;gradientColor=none;fillColor=#232F3D;strokeColor=none;dashed=0;verticalLabelPosition=bottom;verticalAlign=top;align=center;html=1;fontSize=12;fontStyle=0;aspect=fixed;pointerEvents=1;shape=mxgraph.aws4.user;" vertex="1" parent="1">
          <mxGeometry x="440" y="250" width="50" height="50" as="geometry" />
        </mxCell>
        <mxCell id="mOL0XOq7cATIMhWe4-mW-4" value="sync (UID = 5)" style="sketch=0;outlineConnect=0;fontColor=#232F3E;gradientColor=none;fillColor=#232F3D;strokeColor=none;dashed=0;verticalLabelPosition=bottom;verticalAlign=top;align=center;html=1;fontSize=12;fontStyle=0;aspect=fixed;pointerEvents=1;shape=mxgraph.aws4.user;" vertex="1" parent="1">
          <mxGeometry x="440" y="330" width="50" height="50" as="geometry" />
        </mxCell>
        <mxCell id="mOL0XOq7cATIMhWe4-mW-9" value="" style="edgeStyle=orthogonalEdgeStyle;rounded=0;orthogonalLoop=1;jettySize=auto;html=1;startArrow=classic;startFill=1;" edge="1" parent="1" source="mOL0XOq7cATIMhWe4-mW-7" target="mOL0XOq7cATIMhWe4-mW-3">
          <mxGeometry relative="1" as="geometry" />
        </mxCell>
        <mxCell id="mOL0XOq7cATIMhWe4-mW-11" value="Mapeo" style="edgeLabel;html=1;align=center;verticalAlign=top;resizable=0;points=[];" vertex="1" connectable="0" parent="mOL0XOq7cATIMhWe4-mW-9">
          <mxGeometry y="-1" relative="1" as="geometry">
            <mxPoint x="-5" y="-1" as="offset" />
          </mxGeometry>
        </mxCell>
        <mxCell id="mOL0XOq7cATIMhWe4-mW-7" value="&lt;div&gt;usuario (UID = 1000)&lt;/div&gt;&lt;div&gt;&lt;br&gt;&lt;/div&gt;" style="sketch=0;outlineConnect=0;fontColor=#232F3E;gradientColor=none;fillColor=#232F3D;strokeColor=none;dashed=0;verticalLabelPosition=bottom;verticalAlign=top;align=center;html=1;fontSize=12;fontStyle=0;aspect=fixed;pointerEvents=1;shape=mxgraph.aws4.user;" vertex="1" parent="1">
          <mxGeometry x="280" y="250" width="50" height="50" as="geometry" />
        </mxCell>
        <mxCell id="mOL0XOq7cATIMhWe4-mW-10" value="" style="edgeStyle=orthogonalEdgeStyle;rounded=0;orthogonalLoop=1;jettySize=auto;html=1;startArrow=classic;startFill=1;" edge="1" parent="1" source="mOL0XOq7cATIMhWe4-mW-8" target="mOL0XOq7cATIMhWe4-mW-4">
          <mxGeometry relative="1" as="geometry" />
        </mxCell>
        <mxCell id="mOL0XOq7cATIMhWe4-mW-12" value="Mapeo" style="edgeLabel;html=1;align=center;verticalAlign=top;resizable=0;points=[];" vertex="1" connectable="0" parent="mOL0XOq7cATIMhWe4-mW-10">
          <mxGeometry x="0.0873" y="-4" relative="1" as="geometry">
            <mxPoint x="-10" y="-4" as="offset" />
          </mxGeometry>
        </mxCell>
        <mxCell id="mOL0XOq7cATIMhWe4-mW-8" value="UID = 524292" style="sketch=0;outlineConnect=0;fontColor=#232F3E;gradientColor=none;fillColor=#232F3D;strokeColor=none;dashed=0;verticalLabelPosition=bottom;verticalAlign=top;align=center;html=1;fontSize=12;fontStyle=0;aspect=fixed;pointerEvents=1;shape=mxgraph.aws4.user;" vertex="1" parent="1">
          <mxGeometry x="280" y="330" width="50" height="50" as="geometry" />
        </mxCell>
      </root>
    </mxGraphModel>
  </diagram>
</mxfile>
